<?xml version="1.0" encoding="UTF-8" standalone="no"?>
<!DOCTYPE svg PUBLIC "-//W3C//DTD SVG 1.1//EN" "http://www.w3.org/Graphics/SVG/1.1/DTD/svg11.dtd">
<svg width="100%" height="100%" viewBox="0 0 1182 308" version="1.1" xmlns="http://www.w3.org/2000/svg" xmlns:xlink="http://www.w3.org/1999/xlink" xml:space="preserve" xmlns:serif="http://www.serif.com/" style="fill-rule:evenodd;clip-rule:evenodd;stroke-linejoin:round;stroke-miterlimit:2;">
    <g transform="matrix(1,0,0,1,-9.03019,-46.4353)">
        <g transform="matrix(8.31174,0,0,8.31174,-711.403,-1185.82)">
            <path d="M86.927,184.555L86.927,180.405L88.077,180.405C89.011,180.405 89.644,179.889 89.977,178.855L98.477,155.405C98.644,154.939 98.644,154.555 98.477,154.255C98.277,153.989 97.977,153.855 97.577,153.855L94.927,153.855L94.927,149.555L109.827,149.555L119.627,179.005C119.794,179.472 120.027,179.805 120.327,180.005C120.661,180.272 120.994,180.405 121.327,180.405L122.577,180.405L122.577,184.555L107.477,184.555L107.477,180.405L112.027,180.405L109.877,173.755L97.327,173.755L96.577,175.905C96.077,177.305 95.927,178.405 96.127,179.205C96.327,180.005 97.011,180.405 98.177,180.405L100.227,180.405L100.227,184.555L86.927,184.555ZM103.877,155.355L98.877,169.405L108.477,169.405L103.977,155.355L103.877,155.355Z" style="fill:white;fill-rule:nonzero;stroke:black;stroke-width:0.5px;"/>
        </g>
        <g transform="matrix(8.31174,0,0,8.31174,-711.403,-1185.82)">
            <path d="M121.477,162.705L121.477,158.305L124.577,158.305L124.577,151.305L131.877,151.305L131.877,158.305L137.177,158.305L137.177,162.705L131.877,162.705L131.877,177.105C131.877,178.439 132.152,179.322 132.702,179.755C133.252,180.189 134.211,180.405 135.577,180.405L137.377,180.405L137.377,184.305C135.877,184.739 134.311,184.955 132.677,184.955C129.944,184.955 127.911,184.422 126.577,183.355C125.244,182.289 124.577,180.472 124.577,177.905L124.577,162.705L121.477,162.705Z" style="fill:white;fill-rule:nonzero;stroke:black;stroke-width:0.5px;"/>
        </g>
        <g transform="matrix(8.31174,0,0,8.31174,-711.403,-1185.82)">
            <path d="M146.827,184.855C142.894,184.855 140.311,183.355 139.077,180.355C138.644,179.455 138.427,178.322 138.427,176.955C138.427,174.155 139.419,172.122 141.402,170.855C143.386,169.589 145.844,168.955 148.777,168.955C150.544,168.955 152.327,169.155 154.127,169.555L154.127,166.805C154.127,164.205 152.611,162.905 149.577,162.905C148.311,162.905 147.236,163.08 146.352,163.43C145.469,163.78 144.527,164.389 143.527,165.255L140.177,165.255L140.177,159.905C143.177,158.572 146.794,157.905 151.027,157.905C152.594,157.905 153.969,158.022 155.152,158.255C156.336,158.489 157.419,158.897 158.402,159.48C159.386,160.064 160.136,160.914 160.652,162.03C161.169,163.147 161.427,164.505 161.427,166.105L161.427,179.155C161.427,179.455 161.561,179.739 161.827,180.005C162.094,180.272 162.377,180.405 162.677,180.405L164.077,180.405L164.077,183.905C163.577,184.205 162.961,184.455 162.227,184.655C161.394,184.822 160.544,184.905 159.677,184.905C156.911,184.905 155.161,183.805 154.427,181.605C152.694,183.772 150.161,184.855 146.827,184.855ZM149.527,180.555C151.094,180.555 152.627,179.939 154.127,178.705L154.127,173.105C152.994,172.905 151.711,172.805 150.277,172.805C147.111,172.805 145.527,174.089 145.527,176.655C145.527,179.255 146.861,180.555 149.527,180.555Z" style="fill:white;fill-rule:nonzero;stroke:black;stroke-width:0.5px;"/>
        </g>
        <g transform="matrix(8.31174,0,0,8.31174,-711.403,-1185.82)">
            <path d="M174.277,184.905C172.044,184.905 170.311,184.355 169.077,183.255C167.844,182.155 167.227,180.539 167.227,178.405L167.227,163.955C167.227,163.655 167.094,163.372 166.827,163.105C166.494,162.839 166.211,162.705 165.977,162.705L164.277,162.705L164.277,158.305L174.527,158.305L174.527,176.105C174.527,177.405 174.819,178.339 175.402,178.905C175.986,179.472 176.927,179.755 178.227,179.755C179.994,179.755 181.827,179.339 183.727,178.505L183.727,162.705L180.277,162.705L180.277,158.305L191.027,158.305L191.027,179.055C191.027,179.289 191.161,179.572 191.427,179.905C191.661,180.239 191.944,180.405 192.277,180.405L193.977,180.405L193.977,184.555L185.277,184.555C184.844,184.555 184.511,184.339 184.277,183.905C184.044,183.472 183.877,182.605 183.777,181.305C181.277,183.705 178.111,184.905 174.277,184.905Z" style="fill:white;fill-rule:nonzero;stroke:black;stroke-width:0.5px;"/>
        </g>
        <g transform="matrix(8.31174,0,0,8.31174,-711.403,-1185.82)">
            <path d="M194.877,184.555L194.877,180.405L196.627,180.405C196.961,180.405 197.244,180.255 197.477,179.955C197.744,179.689 197.877,179.422 197.877,179.155L197.877,164.055C197.877,163.822 197.744,163.522 197.477,163.155C197.211,162.855 196.927,162.705 196.627,162.705L194.677,162.705L194.677,158.305L203.627,158.305C204.094,158.305 204.444,158.555 204.677,159.055C204.944,159.555 205.094,160.572 205.127,162.105C207.261,159.405 209.677,158.055 212.377,158.055C212.844,158.055 213.377,158.139 213.977,158.305L213.977,163.705L212.727,163.705C209.694,163.705 207.177,164.239 205.177,165.305L205.177,180.405L208.827,180.405L208.827,184.555L194.877,184.555Z" style="fill:white;fill-rule:nonzero;stroke:black;stroke-width:0.5px;"/>
        </g>
        <g transform="matrix(8.31174,0,0,8.31174,-711.403,-1185.82)">
            <path d="M215.027,184.555L215.027,180.405L216.927,180.405C217.227,180.405 217.511,180.255 217.777,179.955C218.011,179.722 218.127,179.455 218.127,179.155L218.127,164.055C218.127,163.789 218.011,163.489 217.777,163.155C217.544,162.855 217.261,162.705 216.927,162.705L214.827,162.705L214.827,158.305L224.277,158.305C225.077,158.305 225.477,159.239 225.477,161.105L225.477,179.155C225.477,179.455 225.611,179.739 225.877,180.005C226.144,180.272 226.427,180.405 226.727,180.405L228.627,180.405L228.627,184.555L215.027,184.555ZM224.477,155.155C223.711,155.889 222.794,156.255 221.727,156.255C220.661,156.255 219.736,155.88 218.952,155.13C218.169,154.38 217.777,153.472 217.777,152.405C217.777,151.305 218.161,150.38 218.927,149.63C219.694,148.88 220.627,148.505 221.727,148.505C222.827,148.505 223.761,148.88 224.527,149.63C225.294,150.38 225.677,151.305 225.677,152.405C225.677,153.472 225.277,154.389 224.477,155.155Z" style="fill:white;fill-rule:nonzero;stroke:black;stroke-width:0.5px;"/>
        </g>
    </g>
</svg>
